<?xml version="1.0" standalone="no"?>
<!DOCTYPE svg PUBLIC "-//W3C//DTD SVG 20010904//EN"
 "http://www.w3.org/TR/2001/REC-SVG-20010904/DTD/svg10.dtd">
<svg version="1.0" xmlns="http://www.w3.org/2000/svg"
 width="300.000000pt" height="168.000000pt" viewBox="0 0 300.000000 168.000000"
 preserveAspectRatio="xMidYMid meet">

<g transform="translate(0.000000,168.000000) scale(0.100000,-0.100000)"
fill="#000000" stroke="none">
<path d="M1 1447 c2 -127 5 -263 7 -300 3 -62 6 -68 23 -64 10 3 19 1 19 -4 0
-5 8 -9 18 -9 9 0 30 -7 46 -15 15 -8 33 -15 38 -15 6 0 31 -10 57 -21 l46
-22 -26 -106 c-15 -58 -25 -109 -22 -113 2 -4 27 2 56 13 61 25 97 35 152 43
26 4 33 3 20 -3 -17 -7 -13 -9 20 -15 22 -3 78 -9 124 -11 46 -3 87 -8 91 -10
13 -8 38 5 44 22 5 13 -4 14 -71 9 -91 -8 -129 6 -67 23 46 13 158 15 150 3
-3 -5 8 -7 23 -4 36 5 45 -16 20 -49 l-19 -24 10 29 c6 16 9 31 6 33 -8 8 -23
-31 -20 -52 1 -11 -1 -22 -5 -25 -11 -7 -121 -203 -117 -208 6 -5 104 38 146
63 19 12 55 27 80 34 25 7 54 17 65 22 11 5 29 11 40 12 11 2 28 7 38 12 17 7
51 -11 43 -24 -3 -4 -1 -13 5 -21 7 -12 9 -12 9 -1 0 10 3 11 14 2 8 -7 13
-21 11 -33 -3 -14 -1 -17 8 -11 13 10 62 -9 51 -19 -3 -3 1 -5 8 -5 7 1 59
-15 116 -37 101 -38 102 -39 102 -71 0 -24 -7 -37 -25 -49 -14 -9 -30 -14 -36
-11 -5 4 -8 3 -7 -2 2 -4 -43 -53 -98 -108 -114 -112 -174 -186 -210 -257 -24
-47 -23 -65 1 -31 9 13 14 13 20 3 5 -9 4 -11 -3 -6 -7 4 -12 3 -12 -3 0 -5
22 -10 49 -9 l49 0 26 68 c14 38 35 81 48 97 66 79 122 132 157 148 45 20 51
34 51 128 0 72 13 88 29 35 5 -18 10 -27 10 -20 1 7 6 10 11 7 6 -3 10 -1 10
4 0 6 -6 11 -12 12 -7 0 -3 4 10 9 12 5 32 25 43 45 12 19 23 35 25 35 7 0
-43 -96 -58 -112 -21 -22 -67 -118 -57 -118 5 0 9 5 9 11 0 5 5 7 12 3 7 -4 8
-3 4 5 -7 11 19 61 124 238 21 34 39 60 42 58 2 -2 4 4 4 13 1 9 9 56 19 105
16 74 21 87 38 87 11 0 38 18 59 41 36 38 41 40 56 26 10 -9 38 -68 62 -131
29 -74 49 -114 57 -111 29 10 133 -57 133 -86 0 -8 -88 -44 -94 -38 -2 2 -13
22 -25 44 -14 27 -21 33 -21 20 0 -11 -5 -37 -10 -57 -10 -34 -18 -40 -117
-87 -105 -51 -106 -51 -120 -31 -8 11 -26 31 -40 44 -15 14 -23 30 -20 39 3 8
3 18 -1 21 -7 8 -64 -143 -57 -153 2 -5 -14 -14 -36 -20 -59 -18 -43 -22 20
-5 30 7 56 12 58 11 1 -2 -30 -25 -71 -50 -40 -26 -80 -55 -87 -64 -12 -15
-10 -15 16 1 20 13 26 14 18 5 -10 -12 -10 -18 0 -29 10 -12 9 -12 -3 -3 -29
21 -57 7 -138 -66 -66 -60 -81 -79 -78 -98 5 -23 -6 -38 -18 -26 -3 3 -1 12 5
20 22 25 -1 13 -41 -23 -45 -41 -50 -53 -20 -51 14 1 19 6 15 17 -4 11 -2 11
8 -2 12 -15 33 -17 150 -17 102 0 136 3 134 12 -1 7 5 12 13 12 8 0 22 5 30
10 13 7 13 6 2 -7 -8 -10 -20 -14 -29 -11 -11 4 -14 3 -9 -6 6 -9 57 -11 196
-10 l189 2 7 40 c5 33 19 53 68 100 l61 58 5 -38 c3 -21 9 -43 13 -50 4 -6 -1
-26 -12 -43 -18 -30 -18 -76 0 -64 5 3 7 9 4 14 -3 5 1 25 9 43 12 30 23 38
79 56 35 12 110 28 166 35 56 7 105 16 108 20 15 15 -210 -21 -279 -45 -33
-11 -62 -18 -64 -17 -2 2 -6 22 -9 43 -5 34 -1 49 31 102 43 72 76 92 156 94
29 1 41 4 25 6 -40 6 -53 40 -39 101 7 32 7 74 1 132 -9 79 -8 87 14 130 70
135 106 166 153 135 26 -17 26 -18 18 -94 -10 -99 -12 -348 -3 -383 8 -28 7
-28 -44 -30 l-52 -2 48 -3 c26 -2 46 -7 43 -11 -2 -4 19 -6 48 -4 68 5 78 -8
127 -155 43 -128 44 -110 2 27 -33 109 -54 140 -96 140 -58 0 -61 6 -68 157
-4 76 -5 147 -3 158 16 71 30 202 23 211 -8 10 -83 11 -124 2 -11 -3 -20 -11
-20 -19 -1 -26 -28 -68 -39 -62 -6 3 -8 3 -4 -2 4 -4 -1 -23 -12 -40 -22 -36
-43 -125 -29 -125 5 0 9 -15 9 -32 l-1 -33 -15 27 c-15 29 -50 54 -56 39 -2
-4 -14 -11 -28 -14 -21 -5 -29 0 -47 27 -14 22 -40 41 -75 56 -46 19 -56 28
-72 66 -10 24 -14 49 -10 55 5 8 3 9 -6 4 -10 -6 -12 -4 -7 9 4 9 3 15 -2 12
-4 -3 -15 12 -23 33 -12 29 -13 42 -4 51 8 8 6 9 -9 4 -11 -4 -2 6 20 22 54
40 148 80 153 65 2 -6 8 -11 14 -11 6 0 8 6 5 14 -3 8 1 20 9 26 16 14 19 40
4 40 -5 0 -10 -7 -10 -15 0 -20 -66 -17 -83 4 -10 12 -9 13 1 7 8 -5 22 2 38
19 14 15 28 24 32 20 4 -3 -4 -15 -18 -25 -25 -19 -25 -20 -3 -20 15 0 28 10
38 29 11 23 19 28 37 24 30 -8 49 -23 42 -34 -7 -12 3 -11 25 3 14 8 60 9 187
1 111 -7 215 -8 303 -2 98 7 136 7 141 -2 4 -6 26 -9 51 -8 36 3 44 0 47 -15
2 -10 -2 -22 -10 -27 -8 -5 -9 -9 -2 -9 7 0 22 9 35 19 24 20 24 20 4 35 -19
15 -19 15 13 16 20 0 31 4 27 10 -3 6 -2 10 3 10 5 0 14 11 20 25 7 14 23 30
37 35 14 5 25 14 25 20 0 5 7 10 15 10 13 0 15 33 15 235 l0 235 -1500 0
-1501 0 2 -233z m1714 113 c-3 -5 -12 -10 -18 -10 -7 0 -6 4 3 10 19 12 23 12
15 0z m50 -130 c3 -6 -1 -7 -9 -4 -18 7 -21 14 -7 14 6 0 13 -4 16 -10z m-80
-20 c-3 -5 -12 -10 -18 -10 -7 0 -6 4 3 10 19 12 23 12 15 0z m410 -80 c-3 -5
-12 -10 -18 -10 -7 0 -6 4 3 10 19 12 23 12 15 0z m-65 -15 c0 -2 -6 -5 -13
-8 -8 -3 -14 1 -14 8 0 7 6 11 14 8 7 -3 13 -6 13 -8z m-1753 -11 c-3 -3 -12
-4 -19 -1 -8 3 -5 6 6 6 11 1 17 -2 13 -5z m252 -17 c8 -11 -4 -20 -59 -46
-38 -17 -83 -43 -99 -56 -16 -14 -35 -25 -42 -25 -23 0 -114 69 -98 74 13 4
69 14 97 18 15 2 16 18 0 18 -6 0 -3 7 8 15 25 19 177 21 193 2z m-328 -13
c17 -8 29 -18 26 -20 -7 -8 -85 15 -92 26 -10 15 33 12 66 -6z m499 6 c0 -5
-2 -10 -4 -10 -3 0 -8 5 -11 10 -3 6 -1 10 4 10 6 0 11 -4 11 -10z m707 -4 c1
-1 -3 -18 -9 -38 -10 -33 -14 -36 -51 -36 -45 -1 -48 -3 -118 -107 -23 -34
-38 -49 -34 -35 11 40 52 105 106 171 45 54 54 60 78 54 14 -4 27 -8 28 -9z
m591 -29 c8 -10 6 -13 -8 -14 -11 -1 -22 2 -25 8 -4 5 2 6 11 2 12 -4 15 -3
10 5 -10 16 -1 15 12 -1z m87 3 c3 -5 1 -10 -4 -10 -6 0 -11 5 -11 10 0 6 2
10 4 10 3 0 8 -4 11 -10z m-927 -241 c6 -15 8 -37 5 -50 -5 -24 -5 -24 10 -4
9 11 17 25 17 30 0 6 20 33 44 60 40 46 45 49 62 35 18 -14 18 -14 5 3 -12 15
-12 19 5 32 26 19 35 19 41 -4 5 -18 7 -18 61 4 32 13 58 20 60 16 1 -5 -2
-28 -7 -52 -5 -24 -8 -45 -6 -47 1 -2 25 10 51 27 31 19 50 26 53 19 2 -7 14
11 27 39 22 52 64 90 84 78 6 -3 8 -11 5 -16 -3 -5 1 -6 9 -3 16 6 49 -72 60
-144 5 -37 3 -46 -18 -67 -14 -14 -22 -25 -19 -25 3 0 -10 -16 -30 -35 -20
-19 -45 -35 -55 -35 -22 0 -32 -18 -32 -60 0 -15 -7 -46 -15 -69 -18 -52 -129
-199 -162 -214 -31 -14 -78 -2 -204 52 -102 44 -132 67 -161 126 -11 22 -36
60 -56 84 -42 51 -54 107 -23 98 11 -3 21 -1 23 4 4 11 63 -4 63 -17 2 -25 18
-54 31 -54 37 0 4 54 -49 81 -23 12 -43 23 -45 24 -6 5 28 137 44 168 9 18 35
61 58 95 l41 64 7 -109 c3 -59 11 -120 16 -134z m957 211 c-4 -6 6 -11 22 -11
18 -1 22 -3 10 -6 -24 -6 -50 4 -42 17 3 5 8 10 11 10 3 0 2 -4 -1 -10z m772
-42 c-3 -8 -6 -5 -6 6 -1 11 2 17 5 13 3 -3 4 -12 1 -19z m-837 -8 c-13 -8
-13 -10 1 -10 9 0 19 -9 22 -20 6 -24 -18 -28 -27 -5 -3 8 -10 15 -16 15 -6 0
-8 -4 -5 -10 4 -6 -1 -7 -11 -3 -15 6 -15 8 6 25 12 10 27 18 34 18 6 0 4 -5
-4 -10z m-1660 -4 c0 -2 -7 -7 -16 -10 -8 -3 -12 -2 -9 4 6 10 25 14 25 6z
m560 -223 c0 -2 -9 -3 -20 -3 -21 0 -25 16 -13 59 5 21 7 20 19 -15 8 -22 14
-40 14 -41z m-92 -28 c-3 -3 -9 2 -12 12 -6 14 -5 15 5 6 7 -7 10 -15 7 -18z
m1500 -70 c-3 -3 -9 2 -12 12 -6 14 -5 15 5 6 7 -7 10 -15 7 -18z m-1845 -2
c-7 -2 -19 -2 -25 0 -7 3 -2 5 12 5 14 0 19 -2 13 -5z m-10 -20 c-7 -2 -19 -2
-25 0 -7 3 -2 5 12 5 14 0 19 -2 13 -5z m527 -103 c12 -23 12 -24 -4 -11 -17
14 -46 63 -46 77 0 9 34 -36 50 -66z m323 -360 c-5 -19 -79 -67 -89 -58 -2 3
14 18 36 34 22 16 40 32 40 37 0 4 4 7 9 7 5 0 7 -9 4 -20z m414 -45 c0 -8 -4
-12 -9 -9 -5 3 -6 10 -3 15 9 13 12 11 12 -6z m-574 -39 c-10 -13 -20 -22 -22
-20 -4 4 29 44 36 44 2 0 -4 -11 -14 -24z m20 -40 c-26 -28 -49 -51 -51 -50
-9 6 50 83 68 89 11 4 17 11 14 17 -5 7 -2 8 5 4 8 -6 -3 -24 -36 -60z m237
54 c0 -5 -5 -10 -11 -10 -5 0 -7 5 -4 10 3 6 8 10 11 10 2 0 4 -4 4 -10z m175
-18 c-3 -3 -11 0 -18 7 -9 10 -8 11 6 5 10 -3 15 -9 12 -12z m205 14 c0 -2 -8
-10 -17 -17 -16 -13 -17 -12 -4 4 13 16 21 21 21 13z m-231 -19 c-2 -1 -14
-11 -26 -21 -13 -11 -23 -16 -23 -13 0 10 31 37 42 37 6 0 9 -1 7 -3z m391 -1
c0 -2 -8 -10 -17 -17 -16 -13 -17 -12 -4 4 13 16 21 21 21 13z m-390 -30 c0
-2 -8 -10 -17 -17 -16 -13 -17 -12 -4 4 13 16 21 21 21 13z m-467 -40 c4 -10
1 -13 -9 -9 -12 5 -19 -7 -15 -29 0 -5 -3 -8 -9 -8 -15 0 -12 21 7 42 19 22
19 22 26 4z m181 -14 c3 -5 -1 -9 -9 -9 -8 0 -15 4 -15 9 0 4 4 8 9 8 6 0 12
-4 15 -8z m132 -21 c-15 -17 -46 -19 -46 -4 0 3 6 3 14 0 8 -3 20 1 26 9 7 8
15 14 18 14 3 0 -3 -9 -12 -19z m21 -26 c0 -8 -4 -12 -9 -9 -5 3 -6 10 -3 15
9 13 12 11 12 -6z m-197 -19 c0 -3 -4 -8 -10 -11 -5 -3 -10 -1 -10 4 0 6 5 11
10 11 6 0 10 -2 10 -4z m120 0 c0 -2 -7 -7 -16 -10 -8 -3 -12 -2 -9 4 6 10 25
14 25 6z m-325 -15 c-9 -8 -36 -10 -30 -2 2 4 11 8 20 8 8 0 13 -3 10 -6z
m360 -1 c-3 -5 -12 -10 -18 -10 -7 0 -6 4 3 10 19 12 23 12 15 0z m85 4 c0 -8
-19 -13 -24 -6 -3 5 1 9 9 9 8 0 15 -2 15 -3z m-490 -44 c-6 -11 -13 -20 -16
-20 -2 0 0 9 6 20 6 11 13 20 16 20 2 0 0 -9 -6 -20z m440 5 c-7 -8 -18 -15
-24 -15 -6 0 -2 7 8 15 25 19 32 19 16 0z m-393 -27 c-3 -8 -6 -5 -6 6 -1 11
2 17 5 13 3 -3 4 -12 1 -19z"/>
<path d="M1625 1130 c-17 -33 -20 -76 -5 -85 11 -7 8 -69 -5 -98 -4 -10 -3
-23 2 -28 7 -7 15 1 23 21 9 23 18 30 31 27 10 -3 20 2 23 10 9 22 7 26 -6 15
-10 -8 -13 0 -14 36 -1 31 3 50 13 57 14 10 13 15 -1 43 -21 40 -41 41 -61 2z"/>
<path d="M1264 996 c-7 -19 13 -56 30 -56 18 0 26 22 19 49 -6 24 -41 29 -49
7z"/>
<path d="M1391 935 c-22 -29 -19 -33 13 -14 20 12 36 22 36 23 0 7 -43 0 -49
-9z"/>
<path d="M996 857 c3 -10 9 -15 12 -12 3 3 0 11 -7 18 -10 9 -11 8 -5 -6z"/>
<path d="M1314 808 c-5 -7 -3 -8 6 -3 7 4 16 2 21 -6 7 -11 9 -10 9 4 0 19
-25 23 -36 5z"/>
<path d="M1096 774 c-5 -14 -4 -15 8 -5 12 10 15 7 19 -16 l5 -28 -2 29 c-1
33 -20 46 -30 20z"/>
<path d="M1160 705 l-23 -25 26 0 c26 0 53 30 40 44 -11 10 -19 7 -43 -19z"/>
<path d="M1287 654 c-39 -21 -30 -26 22 -10 33 9 40 14 27 19 -21 8 -15 9 -49
-9z"/>
<path d="M2731 1023 c-12 -13 -11 -14 8 -8 27 8 27 -4 -2 -30 -24 -21 -4 -11
25 13 15 12 15 16 3 28 -17 17 -17 17 -34 -3z"/>
<path d="M2638 1023 c12 -2 30 -2 40 0 9 3 -1 5 -23 4 -22 0 -30 -2 -17 -4z"/>
<path d="M2623 1003 c9 -2 23 -2 30 0 6 3 -1 5 -18 5 -16 0 -22 -2 -12 -5z"/>
<path d="M1900 990 c-18 -12 -2 -12 25 0 13 6 15 9 5 9 -8 0 -22 -4 -30 -9z"/>
<path d="M2580 989 c0 -5 5 -7 10 -4 6 3 10 8 10 11 0 2 -4 4 -10 4 -5 0 -10
-5 -10 -11z"/>
<path d="M2554 939 c-3 -6 -1 -16 4 -21 8 -8 11 -5 9 11 -1 24 -3 25 -13 10z"/>
<path d="M2598 913 c7 -3 16 -2 19 1 4 3 -2 6 -13 5 -11 0 -14 -3 -6 -6z"/>
<path d="M618 843 c12 -2 32 -2 45 0 12 2 2 4 -23 4 -25 0 -35 -2 -22 -4z"/>
<path d="M568 833 c7 -3 16 -2 19 1 4 3 -2 6 -13 5 -11 0 -14 -3 -6 -6z"/>
<path d="M2171 824 c0 -11 3 -14 6 -6 3 7 2 16 -1 19 -3 4 -6 -2 -5 -13z"/>
<path d="M358 793 c7 -3 16 -2 19 1 4 3 -2 6 -13 5 -11 0 -14 -3 -6 -6z"/>
<path d="M396 782 c-3 -6 -1 -14 5 -17 15 -10 25 3 12 16 -7 7 -13 7 -17 1z"/>
<path d="M447 766 c-10 -8 -14 -17 -9 -20 15 -9 42 4 42 20 0 17 -10 17 -33 0z"/>
<path d="M649 691 c5 -25 6 -25 9 -3 2 14 8 20 15 16 7 -4 8 -3 4 1 -18 20
-34 13 -28 -14z"/>
<path d="M655 649 c-4 -6 -5 -12 -2 -15 2 -3 7 2 10 11 7 17 1 20 -8 4z"/>
<path d="M2208 582 c-23 -14 -37 -32 -25 -32 13 0 75 39 70 44 -9 9 -15 7 -45
-12z"/>
<path d="M2215 410 c-3 -5 -2 -10 4 -10 5 0 13 5 16 10 3 6 2 10 -4 10 -5 0
-13 -4 -16 -10z"/>
<path d="M2179 383 c-13 -16 -12 -17 4 -4 16 13 21 21 13 21 -2 0 -10 -8 -17
-17z"/>
<path d="M2026 245 c-4 -14 0 -41 8 -60 16 -38 32 -48 21 -14 -5 14 -3 19 3
15 6 -4 8 2 4 16 -5 21 -6 21 -13 2 -7 -19 -8 -19 -9 1 -1 11 -1 30 0 43 2 30
-6 28 -14 -3z"/>
<path d="M2330 240 c36 -12 100 -12 100 0 0 6 -27 10 -62 9 -47 -1 -57 -3 -38
-9z"/>
<path d="M2358 123 c6 -2 18 -2 25 0 6 3 1 5 -13 5 -14 0 -19 -2 -12 -5z"/>
<path d="M2424 87 c16 -20 30 -37 33 -37 7 0 -36 58 -49 66 -7 4 1 -9 16 -29z"/>
<path d="M1988 65 c-7 -8 3 -65 12 -65 10 0 10 59 0 65 -4 2 -9 2 -12 0z"/>
<path d="M1903 49 c14 -8 22 -8 30 0 8 8 3 11 -18 11 -26 -1 -28 -2 -12 -11z"/>
<path d="M2325 40 c39 -6 39 -6 10 -12 -21 -3 -15 -5 24 -7 50 -1 53 0 35 14
-11 8 -38 14 -64 13 l-45 -1 40 -7z"/>
<path d="M2541 40 c0 -8 4 -22 9 -30 12 -18 12 -2 0 25 -6 13 -9 15 -9 5z"/>
</g>
</svg>
